<?xml version="1.0" standalone="no"?>
<!DOCTYPE svg PUBLIC "-//W3C//DTD SVG 20010904//EN"
 "http://www.w3.org/TR/2001/REC-SVG-20010904/DTD/svg10.dtd">
<svg version="1.0" xmlns="http://www.w3.org/2000/svg"
 width="500.000000pt" height="500.000000pt" viewBox="0 0 500.000000 500.000000"
 preserveAspectRatio="xMidYMid meet">

<g transform="translate(0.000000,500.000000) scale(0.100000,-0.100000)"
fill="#000000" stroke="none">
<path d="M2250 4535 c-364 -62 -662 -215 -915 -470 -309 -309 -474 -711 -475
-1153 0 -268 48 -481 163 -722 186 -387 553 -708 959 -839 199 -63 282 -75
518 -75 236 0 319 12 518 75 351 113 681 374 882 698 289 466 320 1081 80
1573 -85 173 -183 311 -315 443 -256 258 -555 410 -925 471 -105 17 -386 16
-490 -1z m144 -922 c55 -153 102 -281 106 -286 3 -4 52 120 107 275 l101 283
56 3 56 3 0 -336 0 -335 -35 0 -35 0 0 270 c0 149 -3 270 -8 270 -9 0 -176
-459 -175 -480 1 -8 54 -164 117 -346 64 -182 116 -334 116 -338 0 -3 -19 -6
-43 -6 l-43 0 -30 93 -30 92 -154 0 -154 0 -30 -92 -30 -93 -43 0 c-24 0 -43
2 -43 4 0 2 54 158 119 345 l119 341 -86 240 c-48 132 -90 240 -94 240 -5 0
-8 -121 -8 -270 l0 -270 -35 0 -35 0 0 335 0 335 58 0 58 0 98 -277z m-711
-1345 l24 -42 28 42 c23 36 33 42 61 42 l34 0 0 -60 0 -60 -30 0 c-27 0 -30 3
-30 33 l0 32 -21 -32 c-12 -19 -29 -33 -40 -33 -11 0 -28 14 -39 33 l-20 32 0
-32 c0 -30 -3 -33 -30 -33 l-30 0 0 60 0 60 34 0 c29 0 37 -6 59 -42z m319
-16 c36 -54 37 -57 17 -60 -12 -2 -26 1 -32 7 -6 6 -27 11 -47 11 -20 0 -41
-5 -47 -11 -6 -6 -20 -9 -32 -7 -20 3 -19 6 17 60 29 45 43 58 62 58 19 0 33
-13 62 -58z m188 43 c0 -8 -9 -15 -20 -15 -17 0 -20 -7 -20 -45 0 -43 -1 -45
-30 -45 -29 0 -30 2 -30 45 0 38 -3 45 -20 45 -11 0 -20 7 -20 15 0 12 14 15
70 15 56 0 70 -3 70 -15z m160 0 c0 -9 -9 -15 -25 -15 -23 0 -25 -4 -25 -45 0
-41 -2 -45 -25 -45 -23 0 -25 4 -25 44 0 38 -3 45 -22 48 -12 2 -23 9 -26 16
-3 9 16 12 72 12 61 0 76 -3 76 -15z m212 -43 c36 -54 37 -57 17 -60 -12 -2
-26 1 -32 7 -6 6 -27 11 -47 11 -20 0 -41 -5 -47 -11 -6 -6 -20 -9 -32 -7 -20
3 -19 6 17 60 29 45 43 58 62 58 19 0 33 -13 62 -58z m188 43 c0 -8 -9 -15
-20 -15 -17 0 -20 -7 -20 -45 0 -43 -1 -45 -30 -45 -29 0 -30 2 -30 45 0 38
-3 45 -20 45 -11 0 -20 7 -20 15 0 12 14 15 70 15 56 0 70 -3 70 -15z m80 -10
l0 -25 39 26 c25 16 50 24 68 22 l28 -3 -39 -27 -38 -26 42 -31 43 -31 -34 0
c-19 0 -45 9 -58 19 -26 20 -51 18 -51 -5 0 -9 -11 -14 -30 -14 l-30 0 0 60 0
60 30 0 c25 0 30 -4 30 -25z m210 -35 c0 -57 -1 -60 -25 -60 -24 0 -25 3 -25
60 0 57 1 60 25 60 24 0 25 -3 25 -60z m119 23 l31 -38 0 38 c0 34 2 37 30 37
l30 0 0 -60 0 -60 -32 0 c-26 0 -40 8 -65 37 l-32 38 -1 -37 c0 -34 -3 -38
-25 -38 -24 0 -25 3 -25 60 0 60 0 60 29 60 22 0 38 -10 60 -37z m239 25 c18
-18 15 -28 -10 -29 l-23 0 23 -9 c24 -10 29 -39 10 -58 -27 -27 -128 -10 -128
21 0 5 18 7 41 4 47 -6 45 2 -3 12 -36 7 -48 32 -28 56 15 18 101 20 118 3z"/>
<path d="M2437 3037 c-31 -94 -57 -175 -57 -179 0 -10 240 -10 240 -1 0 15
-115 353 -120 353 -3 0 -31 -78 -63 -173z"/>
<path d="M1926 2255 c-4 -10 1 -15 14 -15 13 0 18 5 14 15 -4 8 -10 15 -14 15
-4 0 -10 -7 -14 -15z"/>
<path d="M2486 2255 c-4 -10 1 -15 14 -15 13 0 18 5 14 15 -4 8 -10 15 -14 15
-4 0 -10 -7 -14 -15z"/>
<path d="M3328 2273 c6 -2 18 -2 25 0 6 3 1 5 -13 5 -14 0 -19 -2 -12 -5z"/>
</g>
</svg>
